<svg xmlns="http://www.w3.org/2000/svg" xmlns:xlink="http://www.w3.org/1999/xlink" version="1.1" x="0px" y="0px" viewBox="0 0 100 125" style="enable-background:new 0 0 100 100;" xml:space="preserve"><path d="M38.8,30c-0.1,0-0.2,0-0.2,0v0c0,0,0,0,0,0c0.2,0,0.3,0,0.5,0c0,0,0,0,0,0c0,0,0,0,0,0v0C38.9,30,38.9,30,38.8,30z"/><path d="M21.9,48.1v11.4c0,0.7,0.9,1.2,1.7,0.9c3.9-1.6,6.5-3,14.2-3.2c0.3,0,0.5,0,0.8,0s0.5,0,0.8,0c7.7,0.2,10.7,1.5,14.6,3.1  c0.8,0.3,1.7-0.1,1.7-0.9V48.1C55.7,37.6,21.9,37.6,21.9,48.1z"/><path d="M13.2,49.3h-1.1c-3.6,0-6.5,2.9-6.5,6.5c0,2.1,0.4,4.2,1.4,6c0.6,1.1,1.4,2.2,2.6,3c0.4,0.3,0.7,0.8,0.7,1.3l0,11.7  c0,0.9,0.7,1.5,1.5,1.5h4.6h2.8h39.1h4.2h3.2c0.9,0,1.5-0.7,1.5-1.5l0-11.7c0-0.5,0.3-1,0.7-1.3c1.2-0.8,2-1.9,2.6-3  c1-1.8,1.4-3.9,1.4-6c0-3.6-2.9-6.5-6.5-6.5h-1.1c-3.4,0-6.1,2.7-6.1,6.1v11.2c-0.1-0.2-0.3-0.3-0.5-0.4c-2.2-1.4-7.4-4.7-18.2-4.9  c-0.2,0-0.3,0-0.5,0c-0.2,0-0.3,0-0.5,0c-10.8,0.2-16,3.5-18.2,4.9c-0.2,0.1-0.6,0.4-1.1,0.7V55.4C19.3,52,16.5,49.3,13.2,49.3z"/><path d="M93.6,38.5c0.6,0,1-0.6,0.8-1.1l-6-16.1c-0.1-0.4-0.5-0.6-0.8-0.6H76.5c-0.4,0-0.7,0.2-0.8,0.6l-6,16.1  c-0.2,0.6,0.2,1.1,0.8,1.1h9.8v37.8h-2.5c-0.2,0-0.4,0.2-0.4,0.4v0.8h-0.9c-0.2,0-0.4,0.2-0.4,0.4V79c0,0.2,0.2,0.4,0.4,0.4h10.9  c0.2,0,0.4-0.2,0.4-0.4v-1.2c0-0.2-0.2-0.4-0.4-0.4h-0.9v-0.8c0-0.2-0.2-0.4-0.4-0.4h-2.4V38.5H93.6z"/><text x="0" y="115" fill="#000000" font-size="5px" font-weight="bold" font-family="'Helvetica Neue', Helvetica, Arial-Unicode, Arial, Sans-serif">Created by Nubaia Karim Barsha</text><text x="0" y="120" fill="#000000" font-size="5px" font-weight="bold" font-family="'Helvetica Neue', Helvetica, Arial-Unicode, Arial, Sans-serif">from the Noun Project</text></svg>